<svg xmlns="http://www.w3.org/2000/svg" id="Layer_1" data-name="Layer 1" viewBox="0 0 924.79 634.33"><defs><style>.cls-1{fill:#51b748;}.cls-2{fill:#f16926;}.cls-3{fill:#060707;}</style></defs><path class="cls-1" d="M599.53,555.77H575.06V490.3c0-22.4-8.27-33.42-24.11-33.42a25.31,25.31,0,0,0-20.33,9.31c-5.52,6.19-7.93,14.11-7.93,23.42v66.16H497.88V440h24.81v18.95H523c8.61-14.47,21.36-21.7,37.55-21.7,25.85,0,38.94,15.84,38.94,47.89ZM448.61,486.51c0-10-2.41-17.57-6.89-22.74-4.48-5.52-10.68-7.92-19-7.92a26.67,26.67,0,0,0-19.3,8.26c-5.5,5.52-9,13.1-10.33,22.4Zm23.78,18.26H392.8c1,23.43,13.09,34.8,35.83,34.8a57.66,57.66,0,0,0,34.8-11.37v20c-10.34,6.9-23.78,10.34-40.66,10.34-17.23,0-30.32-5.51-40.31-15.84C372.81,532.34,368,517.52,368,498.91c0-17.91,5.52-32.72,15.51-44.1,10.33-11.71,23.44-17.22,39.28-17.22s27.91,4.82,36.52,14.81,13.1,23.43,13.1,40.66ZM326,486.51c0-10-2.42-17.57-6.9-22.74-4.48-5.52-10.69-7.92-18.95-7.92a26.59,26.59,0,0,0-19.29,8.26c-5.52,5.52-9,13.1-10.34,22.4Zm23.76,18.26H270.13c1,23.43,13.1,34.8,35.84,34.8a57.63,57.63,0,0,0,34.79-11.37v20c-10.33,6.9-23.76,10.34-40.65,10.34-17.23,0-30.32-5.51-40.32-15.84-9.64-10.34-14.47-25.16-14.47-43.77,0-17.91,5.52-32.72,15.51-44.1,10.34-11.71,23.43-17.22,39.28-17.22,15.51,0,27.91,4.82,36.52,14.81s13.09,23.43,13.09,40.66ZM234,463.42c-3.79-2.4-8.62-3.44-14.48-3.44-7.92,0-14.47,3.44-19.3,10.34-4.81,7.23-7.23,16.19-7.23,27.9v57.55H168.49V440H193v23.09h.35c5.86-16.88,15.85-24.8,30.32-24.8A30.19,30.19,0,0,1,234,439.65Zm-98.2,81.67c-16.2,8.95-34.8,13.78-55.82,13.78-24.12,0-43.76-7.58-58.23-22C7.23,522,0,502,0,477.21c0-25.15,8.27-45.83,24.12-62,16.19-16.2,36.53-24.12,62-24.12,17.57,0,32.39,2.41,44.79,7.92v25.85c-12.74-7.92-27.91-12.07-46.17-12.07-17.22,0-31,5.86-42,17.24-11,11.71-16.2,26.53-16.2,45.14,0,19.28,4.83,34.1,15.17,45.13,10,10.68,23.43,16.19,40.65,16.19,11.37,0,20.67-2.07,28.6-6.2V489.61H76.49V468.25H136.1v76.84Z"></path><path class="cls-2" d="M901,486.51c0-10-2.41-17.57-6.89-22.74-4.48-5.52-10.68-7.92-19-7.92a26.67,26.67,0,0,0-19.3,8.26c-5.5,5.52-9,13.1-10.33,22.4Zm23.78,18.26H845.2c1,23.43,13.09,34.8,35.83,34.8a57.66,57.66,0,0,0,34.8-11.37v20c-10.34,6.9-23.78,10.34-40.66,10.34-17.22,0-30.32-5.51-40.31-15.84-9.65-10.34-14.47-25.16-14.47-43.77,0-17.91,5.51-32.72,15.5-44.1,10.33-11.71,23.44-17.23,39.28-17.23,15.51,0,27.91,4.83,36.53,14.82s13.09,23.43,13.09,40.66ZM813.84,404.5a27.52,27.52,0,0,0-12.74-2.75c-12.41,0-18.26,7.58-18.26,22.4V440h26.87v19.65H782.84v96.13H758V459.64H738V440h19.64V422.77q0-19.12,11.37-30c7.58-7.24,17.23-11,29.28-11a48.83,48.83,0,0,1,15.17,2.07V404.5ZM690.83,440H715.3V555.77H690.83Zm-2.4-39.62a12.73,12.73,0,0,1,4.13-10,14.79,14.79,0,0,1,10.68-4.14,15.4,15.4,0,0,1,10.68,4.14c3.1,2.41,4.48,5.86,4.48,10a13.11,13.11,0,0,1-4.48,10.34c-3.1,2.41-6.55,4.13-10.68,4.13a14.82,14.82,0,0,1-10.68-4.13,14,14,0,0,1-4.13-10.34m-56.52-15.84h24.81V555.77H631.91Z"></path><path class="cls-3" d="M42.32,621.48l1.39.34-1.39,9.73c-2.78.69-5.21,1.38-7.3,1.73a37.32,37.32,0,0,1-6.24.35c-6.6,0-11.81-2.08-15.63-5.91-4.18-3.81-6.25-9-6.25-15.28S9,601,12.8,597.16a22.38,22.38,0,0,1,15.63-5.89,26.4,26.4,0,0,1,8.68,1.38A24.16,24.16,0,0,0,43,594l.34,9.72H42c-1-3.12-2.43-5.9-4.51-7.63a12.39,12.39,0,0,0-8-2.79,13.7,13.7,0,0,0-10.75,4.86c-2.79,3.14-3.83,7.65-3.83,13.21a23.22,23.22,0,0,0,1,7.29A26.68,26.68,0,0,0,19.05,625a14.9,14.9,0,0,0,4.86,4.51,12.7,12.7,0,0,0,5.9,1.74,11.45,11.45,0,0,0,7.65-2.78,10.4,10.4,0,0,0,4.86-6.94m22.57-9.39H67c3.47,0,5.9-.68,7.28-2.07,1.74-1.4,2.44-3.82,2.44-6.61,0-3.12-.7-5.2-2.44-6.93A11.36,11.36,0,0,0,67,594H64.89Zm-12.5,20.5v-1.73a10,10,0,0,0,4.17-.7c.69-.35,1-1.74,1-3.47V598.55c0-2.07-.35-3.47-1-3.81a8.07,8.07,0,0,0-3.82-.7h-.35V592.3H69.75c4.51,0,8.34,1,10.77,2.78,2.78,1.73,3.82,4.52,3.82,7.64A9.69,9.69,0,0,1,82.26,609a11.69,11.69,0,0,1-5.91,3.82c4.52,7.3,7.65,12.16,9.73,14.59s3.81,3.82,5.21,3.82H92v1.73H80.87l-6.26-9.37c-2.08-3.12-3.47-6.26-5.21-9H65.24v11.81c0,2.08.34,3.47,1,4.17a10.74,10.74,0,0,0,4.51.69v1.73H55.86a13.25,13.25,0,0,0-3.47-.34m66,1a22.54,22.54,0,0,1-6.95-1,19.2,19.2,0,0,1-5.91-3.13,19.65,19.65,0,0,1-5.9-7.29,20.79,20.79,0,0,1-2.08-9.38,18.74,18.74,0,0,1,1.39-7.64,26.64,26.64,0,0,1,3.47-6.25,19.86,19.86,0,0,1,7.64-5.56,22.16,22.16,0,0,1,9.72-2.07,18.62,18.62,0,0,1,7.65,1.38,14.56,14.56,0,0,1,6.25,3.83,19.17,19.17,0,0,1,5.21,6.93,23,23,0,0,1,1.73,8.68,22.5,22.5,0,0,1-1,6.95,28,28,0,0,1-3.47,6.26,19.13,19.13,0,0,1-7.64,6.25,23.9,23.9,0,0,1-10.07,2.08m0-39.94c-4.18,0-7.3,1.39-9.38,4.86-2.43,3.12-3.48,7.65-3.48,13.2s1.4,10.42,4.17,13.9a12.31,12.31,0,0,0,10.42,5.55,11.17,11.17,0,0,0,9.37-4.51c2.44-3.13,3.48-7.3,3.48-12.51q0-9.37-4.16-14.58c-2.79-4.17-6.26-5.91-10.42-5.91m31.6,38.9v-1.73a9.92,9.92,0,0,0,4.17-.7c.69-.35,1-1.74,1-3.47V598.55c0-2.07-.34-3.47-1-3.81a8.06,8.06,0,0,0-3.83-.7H150V592.3h16.67c4.51,0,7.63,1,10.07,2.78,2.44,2.08,3.47,4.52,3.47,8.33s-1,6.61-3.47,8.68a14.11,14.11,0,0,1-9.38,3.48h-2.43v-1.74h.69c2.44,0,4.17-.69,5.21-2.42a12.32,12.32,0,0,0,1.74-6.6c0-3.47-.69-5.91-2.08-7.65s-3.47-2.43-6.6-2.43h-1.39v31.61q0,3.12,1.05,4.17a10.6,10.6,0,0,0,4.51.69v1.73H154.49a21.73,21.73,0,0,0-4.51-.34m64.59,0v-1.73a10,10,0,0,0,4.18-.7c.68-.35,1-1.74,1-3.47V598.55c0-2.07-.35-3.47-.69-3.81a8,8,0,0,0-3.82-.7h-.35V592.3h16.67c4.52,0,7.65,1,10.07,2.78,2.44,2.08,3.47,4.52,3.47,8.33s-1,6.61-3.47,8.68a14,14,0,0,1-9.37,3.48H229.5v-1.74h.7c2.44,0,4.18-.69,5.21-2.42a12.41,12.41,0,0,0,1.74-6.6c0-3.47-.7-5.91-2.09-7.65s-3.47-2.43-6.59-2.43h-1.39v31.61c0,2.08.35,3.47,1,4.17a10.73,10.73,0,0,0,4.52.69v1.73H219.09a20.26,20.26,0,0,0-4.52-.34m50-20.5h2.09c3.12,0,5.9-.68,7.3-2.07,1.73-1.4,2.42-3.82,2.42-6.61,0-3.12-.69-5.2-2.42-6.93a11.44,11.44,0,0,0-7.3-2.44h-2.09Zm-12.5,20.5v-1.73a9.92,9.92,0,0,0,4.17-.7c.69-.35,1-1.74,1-3.47V598.55c0-2.07-.35-3.47-1-3.81a8.07,8.07,0,0,0-3.82-.7h-.35V592.3h17.37c4.52,0,8.33,1,10.76,2.78,2.78,1.73,3.83,4.52,3.83,7.64A9.7,9.7,0,0,1,282,609a11.69,11.69,0,0,1-5.91,3.82c4.52,7.3,7.65,12.16,9.73,14.59s3.83,3.82,5.21,3.82h.35v1.73H280.21c-2.08-3.12-4.17-6.24-6.24-9.37s-3.48-6.26-5.21-9h-4.18v11.81c0,2.08.35,3.47,1,4.17a10.76,10.76,0,0,0,4.52.69v1.73H255.2a12.11,12.11,0,0,0-3.12-.34m65.64,1a24.3,24.3,0,0,1-7-1A20.09,20.09,0,0,1,299,622.17a20.67,20.67,0,0,1-2.09-9.38,18.74,18.74,0,0,1,1.39-7.64,14.57,14.57,0,0,1,3.82-6.25,19.94,19.94,0,0,1,7.64-5.56,22.18,22.18,0,0,1,9.73-2.07,18.54,18.54,0,0,1,7.64,1.38,14.5,14.5,0,0,1,6.25,3.83,19.17,19.17,0,0,1,5.21,6.93,23.2,23.2,0,0,1,.7,15.63,28.43,28.43,0,0,1-3.48,6.26,19.13,19.13,0,0,1-7.64,6.25,25.54,25.54,0,0,1-10.42,2.08m.35-39.94c-4.17,0-7.3,1.39-9.38,4.86-2.43,3.12-3.48,7.65-3.48,13.2s1.4,10.42,4.18,13.9a12.28,12.28,0,0,0,10.41,5.55,11.23,11.23,0,0,0,9.39-4.51c2.42-3.13,3.47-7.3,3.47-12.51q0-9.37-4.17-14.58c-3.13-4.17-6.25-5.91-10.42-5.91m41.33,38.9v-1.73h.69a9.92,9.92,0,0,0,4.17-.7c.69-.35,1-1.74,1-3.82V595.08h-7.64c-2.44,0-4.17.35-5.21,1s-1.74,2.42-2.09,4.51h-1.73c.35-1.39.35-3.13.7-4.51,0-1.74.35-3.48.35-5.21h1.38a1.83,1.83,0,0,0,.69,1.38c.35.35,1.4.35,2.79.35h28.82c1.39,0,2.08,0,2.43-.35a5.19,5.19,0,0,0,1-1.38l1.39.35c0,1.73-.35,3.12-.35,4.86s-.34,3.12-.34,4.51h-1.4c0-2.43-.34-3.83-1-4.51s-2.08-1-4.16-1h-8.34V625.3c0,2.77.35,4.51,1.05,4.86.69.7,2.08.7,4.51.7v1.73c-3.13,0-5.56,0-6.6-.35h-6.94a22.85,22.85,0,0,1-5.21.35m36.11.34v-2.07a10,10,0,0,0,4.18-.7c.68-.35,1-1.74,1-3.47V598.55c0-2.08-.35-3.47-1-3.81a8.09,8.09,0,0,0-3.83-.7h-.35V592.3h29.18v8.34l-1.39.7c-.35-2.79-1-4.53-2.09-5.21-1-1-3.12-1.39-6.59-1.39h-6.25V610h4.86q4.15,0,5.21-1a5.61,5.61,0,0,0,1-3.82v-.34h1.73v1c0,2.43-.35,4.17-.35,5.21v3.12a12.85,12.85,0,0,0,.35,3.47l-1.73.35c0-2.43-.35-3.82-1-4.51s-2.44-1-5.21-1h-4.86v11.81c0,2.44.34,3.82,1,4.52s2.43,1,5.21,1a24.06,24.06,0,0,0,9-1.39,9.66,9.66,0,0,0,3.47-5.56l1.74.35-2.09,9.38H397.6a5.3,5.3,0,0,1-2.09.34m76.41-11.45,1.39.34-1.39,9.73c-2.78.69-5.21,1.38-7.29,1.73a37.56,37.56,0,0,1-6.25.35c-6.61,0-11.82-2.08-15.63-5.91-4.17-3.81-6.26-9-6.26-15.28a21,21,0,0,1,5.91-15.28A22.34,22.34,0,0,1,458,591.27a26.36,26.36,0,0,1,8.68,1.38,24.33,24.33,0,0,0,5.9,1.39l.35,9.72h-1.39c-1-3.12-2.43-5.9-4.51-7.63a12.38,12.38,0,0,0-8-2.79,13.75,13.75,0,0,0-10.77,4.86c-2.78,3.14-3.81,7.65-3.81,13.21a23.24,23.24,0,0,0,1,7.29,26.68,26.68,0,0,0,3.13,6.25,12.88,12.88,0,0,0,5.21,4.51,11.62,11.62,0,0,0,5.91,1.74,11.4,11.4,0,0,0,7.63-2.78,11.2,11.2,0,0,0,4.52-6.94m20.49,11.11v-1.73h.35a9.86,9.86,0,0,0,4.16-.7c.7-.35,1.05-1.74,1.05-3.82V595.08h-7.65c-2.43,0-4.17.35-5.2,1s-1.74,2.42-2.09,4.51h-1.74c.35-1.39.35-3.13.7-4.51a26.14,26.14,0,0,0,.35-5.21h1.39a1.83,1.83,0,0,0,.69,1.38c.35.35,1.39.35,2.78.35H516c1.39,0,2.09,0,2.44-.35a5,5,0,0,0,1-1.38l1.38.35c0,1.73-.35,3.12-.35,4.86s-.33,3.12-.33,4.51l-1.74.35c0-2.44-.35-3.83-1.05-4.51s-2.08-1.05-4.16-1.05h-8.33v30.22c0,2.77.33,4.51,1,4.86.7.69,2.09.69,4.51.69v1.73c-3.12,0-5.54,0-6.59-.34H492.41m36.12,0v-1.73a9.86,9.86,0,0,0,4.16-.7c.7-.35,1-1.74,1-3.47V598.55c0-2.07-.35-3.47-1-3.81a8,8,0,0,0-3.81-.7h-.35V592.3h17.71V594h-.7a5.63,5.63,0,0,0-3.82,1c-.69.7-1,1.73-1,3.82V626c0,2.43.35,3.82,1,4.17.7.7,2.09.7,4.52.7v1.73H528.53m47.57,1a22.52,22.52,0,0,1-6.94-1,19.15,19.15,0,0,1-5.9-3.13,19.48,19.48,0,0,1-5.91-7.29,20.66,20.66,0,0,1-2.08-9.38,18.58,18.58,0,0,1,1.39-7.64,19,19,0,0,1,3.81-6.25,19.89,19.89,0,0,1,7.65-5.56,22.13,22.13,0,0,1,9.72-2.07,18.54,18.54,0,0,1,7.64,1.38,14.44,14.44,0,0,1,6.25,3.83,19.05,19.05,0,0,1,5.21,6.93,23,23,0,0,1,.7,15.63,28.79,28.79,0,0,1-3.47,6.26,19.16,19.16,0,0,1-7.65,6.25,25.48,25.48,0,0,1-10.42,2.08m0-39.94c-4.16,0-7.29,1.39-9.37,4.86-2.43,3.12-3.47,7.65-3.47,13.2s1.39,10.42,4.16,13.9c2.79,3.81,6.26,5.55,10.42,5.55a11.22,11.22,0,0,0,9.38-4.51c2.43-3.13,3.47-7.3,3.47-12.51q0-9.37-4.17-14.58c-2.77-4.17-6.24-5.91-10.42-5.91m30.57,38.9v-1.73h.69c2.09,0,3.47-.7,4.17-1.74.69-1.4,1-3.47,1-7.3V599.94c0-2.08-.35-3.81-1-4.51s-2.43-1.39-4.86-1.74V592.3h11.46l26,28.83V600.64c0-2.78-.35-4.51-1.39-5.21-.7-1-2.43-1.39-4.87-1.39h-.34v-1.39h15.28V594h-.35c-2.08,0-3.47.7-4.17,1.74s-1,3.47-1,6.94v31.61h-2.08L615.35,601v21.52c0,3.83.34,6.26,1,7.65a4.49,4.49,0,0,0,3.83,1.73h1v1.74H609.1c-.35-1-1.39-1-2.43-1m103.49-17.36-5.55-16.33-5.56,16.33Zm-23.27,17.36v-1.73a4.75,4.75,0,0,0,3.83-1.4c1-.69,1.73-2.43,2.42-4.86l10.42-31.26a21.54,21.54,0,0,0,2.78-1c1-.35,2.08-1,3.13-1.38L722,627.38a4.25,4.25,0,0,0,1.74,2.78c.69.7,1.74.7,3.12.7v1.73H710.16v-1.73h.69a5.92,5.92,0,0,0,2.78-.35,1.81,1.81,0,0,0,.7-1.39,1.29,1.29,0,0,0-.35-1,15.11,15.11,0,0,1-.35-1.73l-2.78-7.64H698L695.58,626c-.35.7-.35,1.39-.7,2.08v1a1.93,1.93,0,0,0,1,1.74,9.44,9.44,0,0,0,3.82.69v1.73H688.63c-.35-.69-1-.69-1.74-.69m47.58,0v-1.73a10,10,0,0,0,4.17-.7c.7-.35,1-1.74,1-3.47V598.55c0-2.07-.34-3.47-1-3.81a8.07,8.07,0,0,0-3.82-.7h-.35V592.3H763.3V601l-1.4.35q-.51-4.19-2.07-5.21c-1.05-1-3.14-1.39-6.61-1.39h-6.6V610h4.86c2.79,0,4.52-.35,5.21-1s1-2.09,1-4.16h1.74v12.84l-1.74.35c0-2.43-.35-3.82-1-4.51s-2.42-1-5.21-1h-4.86V625c0,2.77.35,4.17,1,4.86s2.08,1.05,4.16,1.05h1v1.73H734.47m49-20.5h2.09c3.47,0,5.89-.68,7.28-2.07a9.49,9.49,0,0,0,2.44-6.61c0-3.12-.7-5.2-2.44-6.93a11.34,11.34,0,0,0-7.28-2.44h-2.09Zm-12.51,20.5v-1.73a10,10,0,0,0,4.18-.7c.69-.35,1-1.74,1-3.47V598.55c0-2.07-.34-3.47-1-3.81a8.09,8.09,0,0,0-3.83-.7h-.35V592.3H788.3c4.51,0,8.33,1,10.77,2.78,2.77,1.73,3.82,4.52,3.82,7.64a9.75,9.75,0,0,1-2.08,6.25,11.74,11.74,0,0,1-5.91,3.82c4.52,7.3,7.64,12.16,9.73,14.59s3.81,3.82,5.21,3.82h.69v1.73H799.42l-6.26-9.37c-2.07-3.12-3.47-6.26-5.21-9h-4.16v11.81c0,2.08.35,3.47,1,4.17a10.73,10.73,0,0,0,4.52.69v1.73H774.41a13.32,13.32,0,0,0-3.48-.34m44.12,0v-1.73a9.9,9.9,0,0,0,4.16-.7c.7-.35,1-1.74,1-3.47V598.55c0-2.07-.35-3.47-.7-3.81a8.07,8.07,0,0,0-3.82-.7h-.35V592.3H833.1V594h-.69a5.61,5.61,0,0,0-3.82,1c-.7.7-1.05,1.73-1.05,3.82V626q0,3.64,1.05,4.17c.69.7,2.09.7,4.51.7v1.73H815.05m61.81-11.11,1.39.34-1.39,9.73c-2.78.69-5.21,1.38-7.29,1.73a37.5,37.5,0,0,1-6.25.35c-6.61,0-11.82-2.08-15.63-5.91-4.17-3.81-6.26-9-6.26-15.28a21,21,0,0,1,5.91-15.28A22.34,22.34,0,0,1,863,591.27a26.32,26.32,0,0,1,8.68,1.38,24.33,24.33,0,0,0,5.9,1.39l.35,9.72h-1.39c-1-3.12-2.43-5.9-4.51-7.63a12.38,12.38,0,0,0-8-2.79,13.77,13.77,0,0,0-10.77,4.86c-2.77,3.14-3.81,7.65-3.81,13.21a22.94,22.94,0,0,0,1,7.29,26.62,26.62,0,0,0,3.12,6.25,13,13,0,0,0,5.21,4.51,12.73,12.73,0,0,0,5.91,1.74,11.38,11.38,0,0,0,7.63-2.78c2.44-1.39,3.83-3.82,4.52-6.94m31.6-6.25-5.55-16.33-5.56,16.33Zm-23.61,17.36v-1.73a4.74,4.74,0,0,0,3.82-1.4c1-.69,1.74-2.43,2.43-4.86l10.41-31.26a22.33,22.33,0,0,0,2.79-1c1-.35,2.09-1,3.12-1.38l12.51,36.46a4.32,4.32,0,0,0,1.73,2.78c.69.7,1.74.7,3.13.7v1.73H908.12v-1.73h.69a5.92,5.92,0,0,0,2.78-.35c.69-.35.69-.7.69-1.39a1.29,1.29,0,0,0-.35-1,15.5,15.5,0,0,1-.34-1.73l-2.78-7.64H896.65L894.23,626c-.35.7-.35,1.39-.7,2.08,0,.35-.35.7-.35,1a1.92,1.92,0,0,0,1.05,1.74,9.34,9.34,0,0,0,3.81.69v1.73H886.93a2.55,2.55,0,0,0-2.08-.69"></path><path class="cls-1" d="M461.88,0l-75.8,47.54L309.24,94.75V283.91l76.84,47.2,67.53,41V316c0-15.17-10.68-33.08-23.43-39.62-17.57-9.31-26.53-24.13-26.53-44.79V190.2l34.45,17.57c7.23,4.13,13.79,11.71,18.26,20.32v-7.57c0-9.65-6.54-21-14.81-25.15-11-5.86-16.88-15.17-16.88-28.26V140.93l22.05,11.36c6.2,3.44,12.4,12.06,15.16,20V160.21c-4.82-26.53-41.35-18.26.35-66.15Z"></path><path class="cls-2" d="M461.88,0l76.84,47.21,76.83,47.2V283.22l-76.83,47.21-65.13,40.31V313.89c0-15.16,10.69-33.07,23.43-39.63,17.57-9.3,26.53-24.12,26.53-44.79V188.12L489.1,205.7c-7.24,4.13-13.78,11.72-18.26,20.33v-7.59c0-9.64,6.88-21,14.82-25.15,11-5.86,16.88-15.16,16.88-28.25V138.85l-22.05,11.38c-6.21,3.44-14.48,13.78-17.57,22.4V158.5c6.19-24.47,39.27-17.92-.69-64.09Z"></path></svg>